HIERARCHY
ROOT hip
{
  OFFSET 0 0 0
  CHANNELS 6 Xposition Yposition Zposition Zrotation Yrotation Xrotation
  JOINT abdomen
  {
    OFFSET 0 20.6881 -0.73152
    CHANNELS 3 Zrotation Xrotation Yrotation
    JOINT chest
    {
      OFFSET 0 11.7043 -0.48768
      CHANNELS 3 Zrotation Xrotation Yrotation
      JOINT neck
      {
        OFFSET 0 22.1894 -2.19456
        CHANNELS 3 Zrotation Xrotation Yrotation
        JOINT head
        {
          OFFSET -0.24384 7.07133 1.2192
          CHANNELS 3 Zrotation Xrotation Yrotation
          JOINT leftEye
          {
            OFFSET 4.14528 8.04674 8.04672
            CHANNELS 3 Zrotation Xrotation Yrotation
            End Site
            {
              OFFSET 1 0 0
            }
          }
          JOINT rightEye
          {
            OFFSET -3.6576 8.04674 8.04672
            CHANNELS 3 Zrotation Xrotation Yrotation
            End Site
            {
              OFFSET 1 0 0
            }
          }
        }
      }
      JOINT rCollar
      {
        OFFSET -2.68224 19.2634 -4.8768
        CHANNELS 3 Zrotation Xrotation Yrotation
        JOINT rShldr
        {
          OFFSET -8.77824 -1.95073 1.46304
          CHANNELS 3 Zrotation Xrotation Yrotation
          JOINT rForeArm
          {
            OFFSET -28.1742 -1.7115 0.48768
            CHANNELS 3 Zrotation Xrotation Yrotation
            JOINT rHand
            {
              OFFSET -22.5879 0.773209 7.07136
              CHANNELS 3 Zrotation Xrotation Yrotation
              JOINT rThumb1
              {
                OFFSET -1.2192 -0.487915 3.41376
                CHANNELS 3 Zrotation Xrotation Yrotation
                JOINT rThumb2
                {
                  OFFSET -3.37035 -0.52449 3.41376
                  CHANNELS 3 Zrotation Xrotation Yrotation
                  End Site
                  {
                    OFFSET -1.78271 -1.18214 1.43049
                  }
                }
              }
              JOINT rIndex1
              {
                OFFSET -7.75947 0.938293 5.60832
                CHANNELS 3 Zrotation Xrotation Yrotation
                JOINT rIndex2
                {
                  OFFSET -2.54057 -0.884171 1.56538
                  CHANNELS 3 Zrotation Xrotation Yrotation
                  End Site
                  {
                    OFFSET -1.62519 -0.234802 1.16502
                  }
                }
              }
              JOINT rMid1
              {
                OFFSET -8.24714 1.18213 3.41376
                CHANNELS 3 Zrotation Xrotation Yrotation
                JOINT rMid2
                {
                  OFFSET -3.10165 -0.590103 1.0647
                  CHANNELS 3 Zrotation Xrotation Yrotation
                  End Site
                  {
                    OFFSET -2.48547 -0.328903 0.83742
                  }
                }
              }
              JOINT rRing1
              {
                OFFSET -8.82822 0.546677 1.51678
                CHANNELS 3 Zrotation Xrotation Yrotation
                JOINT rRing2
                {
                  OFFSET -2.60934 -0.819778 -0.0198488
                  CHANNELS 3 Zrotation Xrotation Yrotation
                  End Site
                  {
                    OFFSET -2.33842 -0.294052 0.168128
                  }
                }
              }
              JOINT rPinky1
              {
                OFFSET -8.27202 -0.0477905 -0.4584
                CHANNELS 3 Zrotation Xrotation Yrotation
                JOINT rPinky2
                {
                  OFFSET -1.82734 -0.647385 -0.700984
                  CHANNELS 3 Zrotation Xrotation Yrotation
                  End Site
                  {
                    OFFSET -1.69225 -0.51767 -0.607171
                  }
                }
              }
            }
          }
        }
      }
      JOINT lCollar
      {
        OFFSET 2.68224 19.2634 -4.8768
        CHANNELS 3 Zrotation Xrotation Yrotation
        JOINT lShldr
        {
          OFFSET 8.77824 -1.95073 1.46304
          CHANNELS 3 Zrotation Xrotation Yrotation
          JOINT lForeArm
          {
            OFFSET 28.1742 -1.7115 0.48768
            CHANNELS 3 Zrotation Xrotation Yrotation
            JOINT lHand
            {
              OFFSET 22.5879 0.773209 7.07136
              CHANNELS 3 Zrotation Xrotation Yrotation
              JOINT lThumb1
              {
                OFFSET 1.2192 -0.487915 3.41376
                CHANNELS 3 Zrotation Xrotation Yrotation
                JOINT lThumb2
                {
                  OFFSET 3.37035 -0.52449 3.41376
                  CHANNELS 3 Zrotation Xrotation Yrotation
                  End Site
                  {
                    OFFSET 1.78271 -1.18214 1.43049
                  }
                }
              }
              JOINT lIndex1
              {
                OFFSET 7.75947 0.938293 5.60832
                CHANNELS 3 Zrotation Xrotation Yrotation
                JOINT lIndex2
                {
                  OFFSET 2.54057 -0.884171 1.56538
                  CHANNELS 3 Zrotation Xrotation Yrotation
                  End Site
                  {
                    OFFSET 1.62519 -0.234802 1.16502
                  }
                }
              }
              JOINT lMid1
              {
                OFFSET 8.24714 1.18213 3.41376
                CHANNELS 3 Zrotation Xrotation Yrotation
                JOINT lMid2
                {
                  OFFSET 3.10165 -0.590103 1.0647
                  CHANNELS 3 Zrotation Xrotation Yrotation
                  End Site
                  {
                    OFFSET 2.48547 -0.328903 0.83742
                  }
                }
              }
              JOINT lRing1
              {
                OFFSET 8.82822 0.546677 1.51678
                CHANNELS 3 Zrotation Xrotation Yrotation
                JOINT lRing2
                {
                  OFFSET 2.60934 -0.819778 -0.0198488
                  CHANNELS 3 Zrotation Xrotation Yrotation
                  End Site
                  {
                    OFFSET 2.33842 -0.294052 0.168128
                  }
                }
              }
              JOINT lPinky1
              {
                OFFSET 8.27202 -0.0477905 -0.4584
                CHANNELS 3 Zrotation Xrotation Yrotation
                JOINT lPinky2
                {
                  OFFSET 1.82734 -0.647385 -0.700984
                  CHANNELS 3 Zrotation Xrotation Yrotation
                  End Site
                  {
                    OFFSET 1.69225 -0.51767 -0.607171
                  }
                }
              }
            }
          }
        }
      }
    }
  }
  JOINT rButtock
  {
    OFFSET -8.77824 4.35084 1.2192
    CHANNELS 3 Zrotation Xrotation Yrotation
    JOINT rThigh
    {
      OFFSET 0 -1.70687 -2.19456
      CHANNELS 3 Zrotation Xrotation Yrotation
      JOINT rShin
      {
        OFFSET 0 -36.8199 0.73152
        CHANNELS 3 Zrotation Xrotation Yrotation
        JOINT rFoot
        {
          OFFSET 0.73152 -45.1104 -5.12064
          CHANNELS 3 Zrotation Xrotation Yrotation
          End Site
          {
            OFFSET -1.1221 -3.69964 12.103
          }
        }
      }
    }
  }
  JOINT lButtock
  {
    OFFSET 8.77824 4.35084 1.2192
    CHANNELS 3 Zrotation Xrotation Yrotation
    JOINT lThigh
    {
      OFFSET 0 -1.70687 -2.19456
      CHANNELS 3 Zrotation Xrotation Yrotation
      JOINT lShin
      {
        OFFSET 0 -36.8199 0.73152
        CHANNELS 3 Zrotation Xrotation Yrotation
        JOINT lFoot
        {
          OFFSET -0.73152 -45.1104 -5.12064
          CHANNELS 3 Zrotation Xrotation Yrotation
          End Site
          {
            OFFSET 1.1221 -3.69964 12.103
          }
        }
      }
    }
  }
}
MOTION
Frames:	8
Frame Time:	0.00833333
-0.907318 82.5947 4.72394 -3.6374 4.2321 5.2881 3.70821 -14.027 -0.256868 2.44426 -3.1466 -0.00610925 -14.913 -3.57592 -7.68006 0.496463 32.9961 -10.6417 -0.0 0.0 0.0 -0.0 0.0 0.0 -1.89236e-14 9.84623e-14 1.40235e-13 62.4216 -33.7444 6.05888 -27.2499 -43.3064 90.0835 -5.6332 -53.81 -11.0753 -1.58393e-10 -6.28937e-11 -7.48443e-11 -2.67708e-10 -1.11765e-10 -1.36146e-10 -1.58381e-10 -6.28952e-11 -7.48631e-11 7.73091 5.47488 0.417314 -1.58393e-10 -6.28953e-11 -7.48429e-11 2.90554 0.965183 0.102902 -1.58382e-10 -6.28966e-11 -7.4855e-11 10.2786 0.731801 0.0259123 -1.58395e-10 -6.28913e-11 -7.4848e-11 2.22167 -0.733487 -0.20892 -1.90028e-14 9.84576e-14 1.40066e-13 119.837 64.4897 -165.836 28.3361 -37.9561 -80.3321 0.0375931 -5.49657 0.774927 2.94853e-10 -2.50467e-10 5.49171e-10 5.08078e-10 -4.31223e-10 9.50762e-10 2.94852e-10 -2.50467e-10 5.49182e-10 -7.73091 5.47488 -0.417314 2.94855e-10 -2.50468e-10 5.4917e-10 -2.90554 0.965183 -0.102902 2.94848e-10 -2.50468e-10 5.49173e-10 -10.2786 0.731801 -0.0259123 2.94859e-10 -2.50467e-10 5.49165e-10 -2.22167 -0.733487 0.20892 -2.03217e-16 0.0 -3.88251e-19 5.63484 -8.04503 7.69322 -0.00253831 17.6728 0.289793 -3.75884 -12.2693 -13.0567 2.03217e-16 0.0 3.88251e-19 4.82542 -14.1601 -13.1886 0.139754 24.9661 -0.499857 2.2113 -15.2102 5.14128
-0.871609 82.6143 4.71258 -3.2847 2.5422 5.3257 3.94828 -13.9702 0.659028 2.12207 -3.20693 0.234791 -14.3475 -3.9044 -7.32219 -0.553436 33.3541 -9.74821 -0.0 0.0 0.0 -0.0 0.0 0.0 -6.26058e-14 1.06551e-13 5.21313e-14 63.1402 -32.6721 7.63178 -27.2564 -43.2883 90.0464 -5.50562 -53.4213 -10.9169 2.43033e-10 5.95241e-11 -7.93739e-11 4.22708e-10 1.07926e-10 -1.27769e-10 2.43046e-10 5.95217e-11 -7.9393e-11 7.73091 5.47488 0.417314 2.43033e-10 5.9521e-11 -7.93707e-11 2.90554 0.965183 0.102902 2.43044e-10 5.9518e-11 -7.93835e-11 10.2786 0.731801 0.0259123 2.43031e-10 5.95237e-11 -7.93771e-11 2.22167 -0.733487 -0.20892 -6.26326e-14 1.06546e-13 5.19822e-14 123.264 66.8491 -169.251 28.3292 -38.0364 -80.47 0.0339982 -5.2557 0.74074 1.04399e-10 -3.89453e-10 5.27845e-11 1.81121e-10 -6.72907e-10 9.16079e-11 1.04399e-10 -3.89451e-10 5.27972e-11 -7.73091 5.47488 -0.417314 1.04402e-10 -3.89452e-10 5.27845e-11 -2.90554 0.965183 -0.102902 1.04394e-10 -3.89452e-10 5.27869e-11 -10.2786 0.731801 -0.0259123 1.04404e-10 -3.89452e-10 5.27781e-11 -2.22167 -0.733487 0.20892 -2.03217e-16 0.0 -3.88251e-19 5.26253 -8.35972 8.81667 -0.00331514 17.9667 0.28523 -3.69255 -12.2822 -12.7282 2.03217e-16 0.0 3.88251e-19 4.48492 -13.5532 -12.6859 0.135559 24.5865 -0.497791 2.61208 -15.2865 6.28871
-0.876786 82.6322 4.71254 -3.126 0.7398 5.318 4.33941 -13.819 1.61754 1.83146 -3.23891 0.484032 -13.8163 -4.10584 -6.98555 -1.22235 33.4887 -9.02905 -0.0 0.0 0.0 -0.0 0.0 0.0 -6.00588e-14 1.00997e-13 5.00813e-14 63.8758 -31.4959 9.37965 -27.2865 -43.2 89.8716 -5.36167 -52.9716 -10.7373 1.65396e-10 3.19651e-11 -1.17786e-10 2.90248e-10 5.97031e-11 -1.97407e-10 1.65407e-10 3.1963e-11 -1.17805e-10 7.73091 5.47488 0.417314 1.65396e-10 3.19614e-11 -1.17783e-10 2.90554 0.965183 0.102902 1.65407e-10 3.19579e-11 -1.17793e-10 10.2786 0.731801 0.0259123 1.65394e-10 3.19623e-11 -1.17787e-10 2.22167 -0.733487 -0.20892 -6.0058e-14 1.00992e-13 4.99392e-14 127.564 69.2665 -173.594 28.3207 -38.1337 -80.6363 0.0285325 -4.85182 0.683489 1.4221e-10 -6.95893e-10 -2.58662e-10 2.4722e-10 -1.20315e-09 -4.47372e-10 1.42208e-10 -6.95891e-10 -2.58645e-10 -7.73091 5.47488 -0.417314 1.42213e-10 -6.95892e-10 -2.5866e-10 -2.90554 0.965183 -0.102902 1.42205e-10 -6.95892e-10 -2.58658e-10 -10.2786 0.731801 -0.0259123 1.42213e-10 -6.95892e-10 -2.58667e-10 -2.22167 -0.733487 0.20892 -2.03217e-16 0.0 -3.88251e-19 4.98684 -8.56193 9.72757 -0.00468592 18.1755 0.278824 -3.53207 -12.3335 -12.0329 2.03217e-16 0.0 3.88251e-19 4.2615 -12.8287 -12.1399 0.131356 24.1921 -0.496211 3.03444 -15.3396 7.49499
-0.911281 82.6552 4.74063 -3.0771 -1.1627 5.1863 4.81987 -13.6013 2.64405 1.5478 -3.25612 0.750185 -13.2906 -4.21183 -6.66246 -1.55892 33.4742 -8.45968 -0.0 0.0 0.0 -0.0 0.0 0.0 -3.11427e-14 8.45854e-14 9.20559e-14 64.5999 -30.189 11.268 -27.3308 -43.0647 89.6083 -5.21232 -52.4916 -10.5498 -1.86432e-10 -8.08823e-11 -1.75068e-10 -3.1332e-10 -1.40844e-10 -3.10758e-10 -1.86425e-10 -8.08835e-11 -1.75086e-10 7.73091 5.47488 0.417314 -1.86434e-10 -8.08862e-11 -1.75066e-10 2.90554 0.965183 0.102902 -1.86423e-10 -8.08895e-11 -1.75072e-10 10.2786 0.731801 0.0259123 -1.86436e-10 -8.08876e-11 -1.75064e-10 2.22167 -0.733487 -0.20892 -3.11256e-14 8.45803e-14 9.1913e-14 133.26 71.7123 -179.322 28.3099 -38.2497 -80.836 0.0226133 -4.33005 0.609672 3.02787e-10 -1.11468e-09 -5.05619e-10 5.24726e-10 -1.92714e-09 -8.74635e-10 3.02781e-10 -1.11467e-09 -5.05596e-10 -7.73091 5.47488 -0.417314 3.02789e-10 -1.11468e-09 -5.05614e-10 -2.90554 0.965183 -0.102902 3.0278e-10 -1.11467e-09 -5.05613e-10 -10.2786 0.731801 -0.0259123 3.02788e-10 -1.11467e-09 -5.05621e-10 -2.22167 -0.733487 0.20892 -2.03217e-16 0.0 -3.88251e-19 4.75838 -8.70862 10.5493 -0.00645118 18.3471 0.271153 -3.30844 -12.4091 -11.0926 2.03217e-16 0.0 3.88251e-19 4.09005 -12.0016 -11.5412 0.126982 23.7721 -0.49482 3.48578 -15.3781 8.77987
-0.938775 82.6816 4.76847 -3.0135 -3.079 5.0382 5.29653 -13.3634 3.66093 1.30525 -3.27837 1.01522 -12.794 -4.26083 -6.37414 -1.62889 33.3863 -8.04476 -0.0 0.0 0.0 -0.0 0.0 0.0 1.52837e-15 6.48438e-14 1.21746e-13 65.2609 -28.8524 13.2003 -27.3769 -42.917 89.3256 -5.08176 -52.0587 -10.3847 -4.69793e-10 -1.69644e-10 -1.92677e-10 -8.00714e-10 -2.99061e-10 -3.52691e-10 -4.69791e-10 -1.69644e-10 -1.92695e-10 7.73091 5.47488 0.417314 -4.69796e-10 -1.69647e-10 -1.92677e-10 2.90554 0.965183 0.102902 -4.69785e-10 -1.6965e-10 -1.92679e-10 10.2786 0.731801 0.0259123 -4.69797e-10 -1.69651e-10 -1.9267e-10 2.22167 -0.733487 -0.20892 1.55486e-15 6.48388e-14 1.216e-13 140.55 73.9565 173.346 28.2986 -38.3609 -81.0297 0.0171543 -3.75319 0.528215 3.89241e-10 -1.2321e-09 -5.976e-10 6.73922e-10 -2.12989e-09 -1.0337e-09 3.89231e-10 -1.23209e-09 -5.97572e-10 -7.73091 5.47488 -0.417314 3.89242e-10 -1.2321e-09 -5.97592e-10 -2.90554 0.965183 -0.102902 3.89234e-10 -1.23209e-09 -5.97591e-10 -10.2786 0.731801 -0.0259123 3.89241e-10 -1.23209e-09 -5.97598e-10 -2.22167 -0.733487 0.20892 -2.03217e-16 0.0 -3.88251e-19 4.547 -8.85537 11.2911 -0.00842873 18.5076 0.263463 -3.05783 -12.4936 -10.0561 2.03217e-16 0.0 3.88251e-19 3.91814 -11.1779 -10.9441 0.122662 23.3523 -0.493617 3.93401 -15.413 10.0471
-0.952938 82.7069 4.76937 -2.924 -4.9418 4.9756 5.68074 -13.1525 4.59159 1.13833 -3.32549 1.26112 -12.3493 -4.29142 -6.14179 -1.50241 33.3006 -7.78647 -0.0 0.0 0.0 -0.0 0.0 0.0 1.53399e-14 4.93009e-14 8.28435e-14 65.8311 -27.5896 15.0912 -27.4144 -42.7929 89.0904 -4.99139 -51.7507 -10.2696 -3.42027e-10 -1.24945e-10 -1.12073e-10 -5.84647e-10 -2.20292e-10 -2.08076e-10 -3.42028e-10 -1.24944e-10 -1.12089e-10 7.73091 5.47488 0.417314 -3.42031e-10 -1.24948e-10 -1.12073e-10 2.90554 0.965183 0.102902 -3.42021e-10 -1.2495e-10 -1.12072e-10 10.2786 0.731801 0.0259123 -3.42032e-10 -1.24952e-10 -1.12064e-10 2.22167 -0.733487 -0.20892 1.53734e-14 4.92968e-14 8.26944e-14 149.319 75.7839 164.486 28.2895 -38.4443 -81.1768 0.0124504 -3.18408 0.447958 2.04685e-10 -6.34448e-10 -4.44117e-10 3.55093e-10 -1.09647e-09 -7.68084e-10 2.04673e-10 -6.3444e-10 -4.44088e-10 -7.73091 5.47488 -0.417314 2.04685e-10 -6.34448e-10 -4.44107e-10 -2.90554 0.965183 -0.102902 2.04677e-10 -6.34447e-10 -4.44107e-10 -10.2786 0.731801 -0.0259123 2.04684e-10 -6.34445e-10 -4.44114e-10 -2.22167 -0.733487 0.20892 -2.03217e-16 0.0 -3.88251e-19 4.3257 -9.05709 11.9625 -0.010438 18.6834 0.257002 -2.81763 -12.5737 -9.0725 2.03217e-16 0.0 3.88251e-19 3.70093 -10.4657 -10.4002 0.118622 22.9584 -0.4926 4.34751 -15.4572 11.2007
-0.944654 82.7231 4.74464 -2.7437 -6.6639 4.9688 5.96572 -12.9623 5.44914 1.0631 -3.42367 1.49245 -11.9469 -4.30979 -5.95863 -1.18737 33.2213 -7.67089 -0.0 0.0 0.0 -0.0 0.0 0.0 -1.05999e-15 4.40941e-14 -8.16605e-14 66.356 -26.4225 17.0393 -27.4402 -42.7064 88.9265 -4.95355 -51.6193 -10.2211 5.34847e-10 1.6248e-10 1.47738e-10 9.13137e-10 2.89742e-10 2.76847e-10 5.34845e-10 1.62482e-10 1.47724e-10 7.73091 5.47488 0.417314 5.34843e-10 1.62478e-10 1.4774e-10 2.90554 0.965183 0.102902 5.34851e-10 1.62476e-10 1.4774e-10 10.2786 0.731801 0.0259123 5.34842e-10 1.62474e-10 1.47748e-10 2.22167 -0.733487 -0.20892 -1.01993e-15 4.40924e-14 -8.18073e-14 159.878 77.1387 153.729 28.2845 -38.4892 -81.2561 0.00769186 -2.57735 0.362464 -4.86194e-10 1.26881e-09 1.40031e-10 -8.38081e-10 2.19404e-09 2.42624e-10 -4.86204e-10 1.26882e-09 1.40056e-10 -7.73091 5.47488 -0.417314 -4.86194e-10 1.26881e-09 1.40041e-10 -2.90554 0.965183 -0.102902 -4.86201e-10 1.26881e-09 1.4004e-10 -10.2786 0.731801 -0.0259123 -4.86195e-10 1.26881e-09 1.40033e-10 -2.22167 -0.733487 0.20892 -2.03217e-16 0.0 -3.88251e-19 4.07949 -9.34537 12.5518 -0.0125738 18.8855 0.2519 -2.57952 -12.6525 -8.10885 2.03217e-16 0.0 3.88251e-19 3.42496 -9.88123 -9.89915 0.114772 22.5816 -0.491752 4.73095 -15.52 12.2489
-0.929287 82.7343 4.6927 -2.5517 -8.3043 4.9821 6.19453 -12.775 6.26362 1.05949 -3.55536 1.71573 -11.5807 -4.2967 -5.81756 -0.65068 33.115 -7.70142 -0.0 0.0 0.0 -0.0 0.0 0.0 -3.38364e-14 4.38313e-14 -3.27737e-13 66.8392 -25.2974 19.0546 -27.4607 -42.6374 88.7951 -4.9517 -51.6131 -10.2188 1.89588e-09 6.07598e-10 5.33741e-10 3.23887e-09 1.07977e-09 9.99654e-10 1.89587e-09 6.07601e-10 5.33729e-10 7.73091 5.47488 0.417314 1.89587e-09 6.07598e-10 5.33744e-10 2.90554 0.965183 0.102902 1.89588e-09 6.07597e-10 5.33743e-10 10.2786 0.731801 0.0259123 1.89587e-09 6.07596e-10 5.3375e-10 2.22167 -0.733487 -0.20892 -3.3793e-14 4.38331e-14 -3.2788e-13 172.14 77.9398 141.19 28.2823 -38.5097 -81.2918 0.00365632 -1.92021 0.269953 -1.51745e-09 4.09696e-09 1.05289e-09 -2.61918e-09 7.08356e-09 1.82207e-09 -1.51746e-09 4.09697e-09 1.05291e-09 -7.73091 5.47488 -0.417314 -1.51745e-09 4.09696e-09 1.0529e-09 -2.90554 0.965183 -0.102902 -1.51746e-09 4.09696e-09 1.0529e-09 -10.2786 0.731801 -0.0259123 -1.51745e-09 4.09696e-09 1.05289e-09 -2.22167 -0.733487 0.20892 -2.03217e-16 0.0 -3.88251e-19 3.82628 -9.68568 13.059 -0.0148942 19.0986 0.247562 -2.32908 -12.7346 -7.10973 2.03217e-16 0.0 3.88251e-19 3.12006 -9.37256 -9.41932 0.111035 22.2133 -0.491074 5.0975 -15.5942 13.2318
